# xmcd CD database file
#
# Track frame offsets:
#	150
#	16232
#	32736
#	49145
#	67777
#	83399
#	96551
#	111646
#	128925
#	146550
#	162662
#	178844
#	196671
#	212815
#	231980
#
# Disc length: 3359 seconds
#
# Revision: 0
# Processed by: cddbd v1.5.2PL0 Copyright (c) Steve Scherf et al.
# Submitted via: CDex 1.70beta2
#
DISCID=d50d1d0f
DTITLE=Shania Twain - Come On Over
DYEAR=1900
DGENRE=Country
TTITLE0=You're Still The One
TTITLE1=When
TTITLE2=Black Eyes, Blue Tears
TTITLE3=I Won't Leave You Lonely
TTITLE4=I'm Holding On To Love
TTITLE5=Come On Over
TTITLE6=You've Gat A Way
TTITLE7=Whatever You Do, Don't!
TTITLE8=Man! I Feel Like A Woman
TTITLE9=Love Gets Me Every Time
TTITLE10=Don't Be Stupid
TTITLE11=That Don't Impress Me Much
TTITLE12=Honey, I'm Home
TTITLE13=If You Wanna Touch Her, Ask!
TTITLE14=Rock This Country
EXTD=
EXTT0=
EXTT1=
EXTT2=
EXTT3=
EXTT4=
EXTT5=
EXTT6=
EXTT7=
EXTT8=
EXTT9=
EXTT10=
EXTT11=
EXTT12=
EXTT13=
EXTT14=
PLAYORDER=
